HIERARCHY
ROOT Hips
{
	OFFSET 0.000000 0.000000 0.000000
	CHANNELS 6 Xposition Yposition Zposition Xrotation Yrotation Zrotation
	JOINT LeftUpLeg_virtual
	{
		OFFSET 0.000000 0.000000 0.000000
		CHANNELS 3 Xrotation Yrotation Zrotation
		JOINT LeftUpLeg
		{
			OFFSET 15.427100 -6.655098 0.678600
			CHANNELS 3 Xrotation Yrotation Zrotation
			JOINT LeftLeg
			{
				OFFSET 4.081073 -39.591068 13.024000
				CHANNELS 3 Xrotation Yrotation Zrotation
				JOINT LeftFoot
				{
					OFFSET -4.081074 -37.707932 -15.979700
					CHANNELS 3 Xrotation Yrotation Zrotation
					JOINT LeftToeBase
					{
						OFFSET 5.346399 -15.068900 20.645000
						CHANNELS 3 Xrotation Yrotation Zrotation
						JOINT LeftToe_End
						{
							OFFSET 2.754700 0.931300 11.300900
							CHANNELS 3 Xrotation Yrotation Zrotation
							End Site
							{
								OFFSET 0 0 0
							}
						}
					}
				}
			}
		}
	}
	JOINT RightUpLeg_virtual
	{
		OFFSET 0.000000 0.000000 0.000000
		CHANNELS 3 Xrotation Yrotation Zrotation
		JOINT RightUpLeg
		{
			OFFSET -15.569500 -6.655098 0.678600
			CHANNELS 3 Xrotation Yrotation Zrotation
			JOINT RightLeg
			{
				OFFSET -4.081825 -39.591045 13.023800
				CHANNELS 3 Xrotation Yrotation Zrotation
				JOINT RightFoot
				{
					OFFSET 4.081824 -37.707954 -15.979600
					CHANNELS 3 Xrotation Yrotation Zrotation
					JOINT RightToeBase
					{
						OFFSET -5.346400 -15.068900 20.645000
						CHANNELS 3 Xrotation Yrotation Zrotation
						JOINT RightToe_End
						{
							OFFSET -2.754700 0.931300 11.300900
							CHANNELS 3 Xrotation Yrotation Zrotation
							End Site
							{
								OFFSET 0 0 0
							}
						}
					}
				}
			}
		}
	}
	JOINT Spine_virtual
	{
		OFFSET 0.000000 0.000000 0.000000
		CHANNELS 3 Xrotation Yrotation Zrotation
		JOINT Spine
		{
			OFFSET -0.279200 12.230698 -2.892100
			CHANNELS 3 Xrotation Yrotation Zrotation
			JOINT Spine1
			{
				OFFSET -0.232667 10.192268 -1.242267
				CHANNELS 3 Xrotation Yrotation Zrotation
				JOINT Spine1_split
				{
					OFFSET -0.232667 10.192268 -1.242267
					CHANNELS 3 Xrotation Yrotation Zrotation
					JOINT Spine2
					{
						OFFSET -0.232667 10.192268 -1.242267
						CHANNELS 3 Xrotation Yrotation Zrotation
						JOINT Neck_virtual
						{
							OFFSET 0.000000 0.000000 0.000000
							CHANNELS 3 Xrotation Yrotation Zrotation
							JOINT Neck
							{
								OFFSET -0.418800 17.814194 8.416900
								CHANNELS 3 Xrotation Yrotation Zrotation
								JOINT Head
								{
									OFFSET 0.000000 7.031097 3.806800
									CHANNELS 3 Xrotation Yrotation Zrotation
									JOINT HeadTop_End
									{
										OFFSET 0.000000 24.646606 12.978600
										CHANNELS 3 Xrotation Yrotation Zrotation
										End Site
										{
											OFFSET 0 0 0
										}
									}
								}
							}
						}
						JOINT LeftShoulder_virtual
						{
							OFFSET 0.000000 0.000000 0.000000
							CHANNELS 3 Xrotation Yrotation Zrotation
							JOINT LeftShoulder
							{
								OFFSET 8.476499 7.247704 -3.868750
								CHANNELS 3 Xrotation Yrotation Zrotation
								JOINT LeftShoulder_split
								{
									OFFSET 8.476499 7.247704 -3.868750
									CHANNELS 3 Xrotation Yrotation Zrotation
									JOINT LeftArm
									{
										OFFSET 9.308998 -2.777710 0.208600
										CHANNELS 3 Xrotation Yrotation Zrotation
										JOINT LeftForeArm
										{
											OFFSET 29.972298 0.000000 0.000000
											CHANNELS 3 Xrotation Yrotation Zrotation
											JOINT LeftHand
											{
												OFFSET 26.026505 0.000000 0.000000
												CHANNELS 3 Xrotation Yrotation Zrotation
												End Site
												{
													OFFSET 0 0 0
												}
											}
										}
									}
								}
							}
						}
						JOINT RightShoulder_virtual
						{
							OFFSET 0.000000 0.000000 0.000000
							CHANNELS 3 Xrotation Yrotation Zrotation
							JOINT RightShoulder
							{
								OFFSET -7.570500 7.247704 -3.868750
								CHANNELS 3 Xrotation Yrotation Zrotation
								JOINT RightShoulder_split
								{
									OFFSET -7.570500 7.247704 -3.868750
									CHANNELS 3 Xrotation Yrotation Zrotation
									JOINT RightArm
									{
										OFFSET -9.308998 -2.777710 0.208500
										CHANNELS 3 Xrotation Yrotation Zrotation
										JOINT RightForeArm
										{
											OFFSET -29.972300 0.000000 0.000000
											CHANNELS 3 Xrotation Yrotation Zrotation
											JOINT RightHand
											{
												OFFSET -26.026505 0.000000 0.000000
												CHANNELS 3 Xrotation Yrotation Zrotation
												End Site
												{
													OFFSET 0 0 0
												}
											}
										}
									}
								}
							}
						}
					}
				}
			}
		}
	}
}
MOTION
Frames: 5
Frame Time: 0.03333333
3.545797 67.525963 -50.605789 0.000000 0.000000 0.000000 34.946263 -79.094246 31.630316 -46.923338 -8.147263 28.975780 70.767440 12.039089 2.084580 -14.105926 2.285988 -32.371927 -7.051242 -2.931417 5.709473 0.000000 0.000000 0.000000 34.440556 -78.251538 31.760626 -47.791250 1.083298 -14.041260 75.047072 19.521924 -1.599766 -27.359509 -3.295813 6.619414 -0.387846 1.673027 1.054449 0.000000 0.000000 0.000000 44.816047 -82.979149 42.676747 5.193073 11.612546 -4.284312 10.132780 18.887783 -6.269228 0.694799 -5.616996 1.911221 0.000000 0.000000 0.000000 12.664553 18.252250 -7.803960 -0.893089 2.067495 3.294088 4.551100 2.667148 -6.449208 0.000000 0.000000 0.000000 10.300457 18.519218 -7.104399 4.386370 -4.140530 0.225943 1.870049 3.120806 0.268824 -75.646565 -30.496429 -61.275102 54.585543 -75.645042 53.545504 0.000000 0.000000 0.000000 9.373737 18.628414 -6.617847 5.374039 7.950506 -2.174474 -2.153291 6.283327 -3.518791 -48.459694 -4.279588 29.492094 -15.553785 43.893111 1.808809 0.000000 0.000000 0.000000 
4.396264 66.635468 -51.452042 0.000000 0.000000 0.000000 43.767494 -75.586958 40.116191 -51.969362 -9.234283 28.996072 71.645495 11.115105 1.498424 -13.824461 0.939370 -31.252606 -6.999067 -3.239432 6.177836 0.000000 0.000000 0.000000 40.760141 -75.218305 38.281393 -51.907928 0.503109 -14.700804 75.986701 18.181142 0.159378 -28.391865 -3.308604 5.321749 1.677153 1.451461 0.706755 0.000000 0.000000 0.000000 49.476091 -79.098802 47.038430 5.732614 11.452206 -4.329353 10.849151 18.181660 -6.478119 0.904690 -6.286299 1.870575 0.000000 0.000000 0.000000 12.597877 17.700714 -7.596686 -1.021427 4.380725 3.799228 2.026794 5.287319 -10.224347 0.000000 0.000000 0.000000 10.673827 17.867205 -7.423658 3.585450 -4.456436 -2.248468 0.085660 2.545326 -0.157378 -61.378614 -21.680192 -55.945308 50.912736 -71.519655 48.524905 0.000000 0.000000 0.000000 9.793391 18.257579 -6.534170 4.731974 8.005896 0.802470 -1.558021 6.459142 -4.237530 -42.666508 -10.376927 30.128490 -15.123646 43.042110 5.138213 0.000000 0.000000 0.000000 
5.055938 66.284058 -51.867058 0.000000 0.000000 0.000000 48.749372 -72.275436 45.313131 -56.285137 -9.629352 28.441794 71.631220 9.861174 1.030941 -13.202263 -0.227448 -29.198792 -6.743863 -3.551652 6.091336 0.000000 0.000000 0.000000 43.603969 -72.128683 41.821508 -55.229777 0.654254 -16.565789 76.256706 17.172002 1.411777 -27.964903 -2.965623 5.926538 1.781222 1.193256 0.295494 0.000000 0.000000 0.000000 50.369841 -75.299175 47.949017 6.104206 11.219058 -4.094238 11.452948 17.455662 -6.479387 1.259153 -6.389443 1.618716 0.000000 0.000000 0.000000 12.357400 17.070217 -7.178059 -1.295638 6.453888 4.116022 0.396371 7.873155 -13.790210 0.000000 0.000000 0.000000 10.924999 17.184119 -7.489320 3.042974 -4.071634 -3.998115 -0.904659 1.947962 -0.515832 -47.544834 -12.206026 -52.705216 40.407652 -67.628333 37.793643 0.000000 0.000000 0.000000 10.132701 17.761512 -6.305264 4.258497 8.134079 3.434443 -0.736090 6.991654 -4.394204 -35.363605 -17.612729 32.406294 -14.679067 43.219986 7.599717 0.000000 0.000000 0.000000 
5.556864 66.213623 -52.349236 0.000000 0.000000 0.000000 49.933922 -69.277734 47.225202 -59.860727 -9.572234 27.221301 71.274718 8.346214 0.773605 -12.020149 -0.952323 -27.224359 -6.032856 -3.735756 5.520154 0.000000 0.000000 0.000000 44.449666 -69.426291 43.630832 -57.367606 1.770581 -18.819452 75.858417 16.464425 1.786685 -27.141575 -2.364293 8.113328 0.865550 0.915332 -0.010007 0.000000 0.000000 0.000000 49.708659 -72.048052 47.562309 6.218330 10.907868 -3.645933 11.922006 16.731088 -6.346492 1.400530 -5.880754 1.544774 0.000000 0.000000 0.000000 11.996555 16.363211 -6.676812 -1.715972 8.172245 4.205831 -0.366152 10.006026 -16.818687 0.000000 0.000000 0.000000 11.101465 16.457020 -7.338227 2.696088 -3.406082 -4.941044 -0.833533 1.217931 -0.765122 -34.729965 -3.832793 -52.824024 28.532825 -63.981148 26.341881 0.000000 0.000000 0.000000 10.479517 17.177984 -6.008882 3.868892 8.628306 5.935324 -0.025738 7.321403 -4.163122 -26.182847 -24.539608 36.846576 -14.107256 43.137750 9.034873 0.000000 0.000000 0.000000 
5.801810 66.316139 -52.420921 0.000000 0.000000 0.000000 47.654691 -66.672004 46.041520 -62.394188 -9.144055 25.466200 70.404483 6.839760 0.687309 -10.202196 -0.994944 -26.154625 -4.964012 -3.698676 4.575105 0.000000 0.000000 0.000000 44.095643 -67.132714 44.163645 -57.522979 3.549370 -20.754218 74.503348 15.517495 1.489169 -26.966188 -1.879731 10.189284 0.701139 0.670041 -0.065570 0.000000 0.000000 0.000000 47.281715 -69.429747 45.683044 6.107320 10.480662 -3.151508 12.253487 15.978104 -6.179375 1.332173 -4.717296 1.459338 0.000000 0.000000 0.000000 11.659637 15.584251 -6.200968 -2.284135 9.505772 4.087802 -0.464318 11.522330 -19.083620 0.000000 0.000000 0.000000 11.261748 15.678219 -7.097840 2.461030 -2.807584 -5.177061 -0.114910 0.726520 -0.907639 -23.786767 2.419307 -56.117811 17.978622 -60.165306 16.348655 0.000000 0.000000 0.000000 10.878347 16.509640 -5.706396 3.453053 9.480009 8.322744 0.519717 7.554739 -3.705230 -16.353976 -29.745368 42.689212 -13.434440 41.971690 9.499361 0.000000 0.000000 0.000000 
